<?xml version="1.0" standalone="no"?>
<!DOCTYPE svg PUBLIC "-//W3C//DTD SVG 20010904//EN"
 "http://www.w3.org/TR/2001/REC-SVG-20010904/DTD/svg10.dtd">
<svg version="1.0" xmlns="http://www.w3.org/2000/svg"
 width="50.000000pt" height="50.000000pt" viewBox="0 0 50.000000 50.000000"
 preserveAspectRatio="xMidYMid meet">
<metadata>
Created by potrace 1.16, written by Peter Selinger 2001-2019
</metadata>
<g transform="translate(0.000000,50.000000) scale(0.100000,-0.100000)"
fill="#000000" stroke="none">
<path d="M150 489 c-43 -18 -91 -60 -121 -107 -26 -42 -29 -54 -29 -133 0 -81
2 -90 33 -135 17 -27 52 -62 75 -79 41 -28 49 -30 142 -30 93 0 101 2 142 30
23 17 58 52 76 79 30 45 32 54 32 136 0 82 -2 91 -32 136 -18 27 -53 62 -76
79 -40 27 -52 30 -130 32 -48 2 -98 -2 -112 -8z m225 -239 l0 -125 -40 0 -40
0 -3 48 c-3 42 0 49 17 54 12 3 21 11 21 19 0 8 -6 11 -15 8 -26 -10 -31 27
-7 47 28 22 28 29 -1 29 -29 0 -47 -18 -47 -47 0 -13 -7 -26 -15 -29 -19 -8
-19 -24 0 -24 12 0 15 -13 15 -55 l0 -56 -67 3 -68 3 -3 114 c-1 63 0 121 2
128 4 11 33 13 128 11 l123 -3 0 -125z"/>
</g>
</svg>
